<svg width="425" height="60" viewBox="0 0 425 60" fill="none" xmlns="http://www.w3.org/2000/svg">
<rect width="425" height="60" rx="20" fill="white"/>
<path d="M23.008 33.8V30.248H27.776V29.048H23.008V25.64H29.136V24.44H21.728V35H29.376V33.8H23.008ZM35.5791 26.84C34.4751 26.84 33.4511 27.24 32.8911 28.248L32.8111 27H31.6911V35H32.9711V30.744C32.9711 28.696 34.2831 27.96 35.4511 27.96C36.5551 27.96 37.4191 28.552 37.4191 30.328V35H38.6991V29.88C38.6991 27.816 37.2911 26.84 35.5791 26.84ZM45.936 33.368C45.568 33.736 45.152 33.96 44.576 33.96C43.872 33.96 43.376 33.576 43.376 32.792V28.104H46.336V27H43.376V24.728L42.096 25.08V27H40.496V28.104H42.096V33.016C42.112 34.568 43.136 35.16 44.32 35.16C45.2 35.16 45.888 34.888 46.384 34.44L45.936 33.368ZM55.0551 30.584C55.0551 28.52 53.7911 26.84 51.4711 26.84C49.0551 26.84 47.6951 28.408 47.6951 31C47.6951 33.592 49.1511 35.16 51.5671 35.16C53.2951 35.16 54.2871 34.504 54.8951 33.416L53.8231 32.856C53.5351 33.624 52.7351 34.04 51.5671 34.04C50.0951 34.04 49.1191 33.096 48.9591 31.48H54.9911C55.0231 31.256 55.0551 30.952 55.0551 30.584ZM51.4711 27.96C52.8311 27.96 53.6471 28.872 53.8231 30.344H48.9751C49.1671 28.84 50.0471 27.96 51.4711 27.96ZM61.264 26.84C60.016 26.84 59.152 27.336 58.704 28.312L58.528 27H57.488V35H58.768V30.68C58.768 28.888 59.92 28.04 60.88 28.04C61.296 28.04 61.648 28.12 61.888 28.248L62.144 27C61.904 26.872 61.536 26.84 61.264 26.84ZM75.4911 27H74.1151L72.2431 32.056L71.6671 33.64L71.1711 32.216L69.1711 27H67.7151L71.0591 34.984L70.6431 36.024C70.2431 37.08 69.7471 37.32 69.1871 37.32C68.7391 37.32 68.2591 37.192 67.8911 36.68L67.4431 37.768C67.8911 38.248 68.4031 38.44 69.2031 38.44C70.3871 38.44 71.1071 37.912 71.7311 36.344L75.4911 27ZM80.6296 26.84C78.2136 26.84 76.7576 28.408 76.7576 31C76.7576 33.592 78.2136 35.16 80.6296 35.16C83.0456 35.16 84.5016 33.592 84.5016 31C84.5016 28.408 83.0456 26.84 80.6296 26.84ZM80.6296 27.944C82.2456 27.944 83.2216 29.096 83.2216 31C83.2216 32.904 82.2456 34.056 80.6296 34.056C79.0136 34.056 78.0376 32.904 78.0376 31C78.0376 29.096 79.0136 27.944 80.6296 27.944ZM92.636 27V31.352C92.636 33.24 91.436 34.04 90.076 34.04C88.924 34.04 88.188 33.544 88.188 31.896V27H86.908V32.232C86.908 34.344 88.268 35.16 89.852 35.16C91.132 35.16 92.156 34.744 92.716 33.784L92.796 35H93.916V27H92.636ZM100.67 26.84C99.4223 26.84 98.5583 27.336 98.1103 28.312L97.9343 27H96.8943V35H98.1743V30.68C98.1743 28.888 99.3263 28.04 100.286 28.04C100.702 28.04 101.054 28.12 101.294 28.248L101.55 27C101.31 26.872 100.942 26.84 100.67 26.84ZM115.368 30.584C115.368 28.52 114.104 26.84 111.784 26.84C109.368 26.84 108.008 28.408 108.008 31C108.008 33.592 109.464 35.16 111.88 35.16C113.608 35.16 114.6 34.504 115.208 33.416L114.136 32.856C113.848 33.624 113.048 34.04 111.88 34.04C110.408 34.04 109.432 33.096 109.272 31.48H115.304C115.336 31.256 115.368 30.952 115.368 30.584ZM111.784 27.96C113.144 27.96 113.96 28.872 114.136 30.344H109.288C109.48 28.84 110.36 27.96 111.784 27.96ZM127.097 26.84C126.089 26.84 124.809 27.32 124.312 28.408C123.785 27.336 122.681 26.84 121.561 26.84C120.569 26.84 119.577 27.272 119.001 28.248L118.921 27H117.801V35H119.081V30.728C119.081 28.744 120.393 27.96 121.449 27.96C122.505 27.96 123.337 28.552 123.337 30.008V35H124.617V30.616C124.617 28.904 125.737 27.96 126.985 27.96C128.041 27.96 128.873 28.552 128.873 30.008V35H130.153V29.88C130.153 27.768 128.633 26.84 127.097 26.84ZM139.611 34.072C139.163 34.072 139.003 33.88 139.003 33.496V29.56C139.003 27.704 137.675 26.84 135.851 26.84C134.299 26.84 133.035 27.608 132.618 28.792L133.562 29.48C133.995 28.472 134.795 27.96 135.851 27.96C137.051 27.96 137.723 28.664 137.723 29.72V30.168L135.595 30.52C133.531 30.872 132.475 31.816 132.475 33.016C132.475 34.456 133.691 35.16 135.195 35.16C136.219 35.16 137.259 34.728 137.771 33.976C137.915 34.872 138.427 35.16 139.211 35.16C139.611 35.16 139.947 35.08 140.171 35L140.251 33.992C140.059 34.04 139.819 34.072 139.611 34.072ZM135.259 34.04C134.347 34.04 133.803 33.688 133.803 33.016C133.803 32.264 134.523 31.8 135.931 31.544L137.723 31.208V32.312C137.723 33.368 136.539 34.04 135.259 34.04ZM142.753 25.464C143.329 25.464 143.713 25.08 143.713 24.504C143.713 23.928 143.329 23.544 142.753 23.544C142.177 23.544 141.793 23.928 141.793 24.504C141.793 25.08 142.177 25.464 142.753 25.464ZM143.393 27H142.113V35H143.393V27ZM147.579 23.32H146.299V33.016C146.299 34.472 146.923 35.16 148.219 35.16C148.635 35.16 149.067 35.08 149.403 34.936L149.611 33.704C149.147 33.88 148.875 33.928 148.443 33.928C147.787 33.928 147.579 33.672 147.579 32.856V23.32ZM160.032 26.84C158.944 26.84 157.984 27.24 157.424 28.2V23.32H156.144V35H157.424V30.76C157.424 28.712 158.736 27.96 159.904 27.96C161.008 27.96 161.872 28.552 161.872 30.328V35H163.152V29.88C163.152 27.816 161.744 26.84 160.032 26.84ZM172.915 30.584C172.915 28.52 171.651 26.84 169.331 26.84C166.914 26.84 165.555 28.408 165.555 31C165.555 33.592 167.011 35.16 169.427 35.16C171.155 35.16 172.147 34.504 172.755 33.416L171.683 32.856C171.395 33.624 170.595 34.04 169.427 34.04C167.955 34.04 166.979 33.096 166.819 31.48H172.851C172.883 31.256 172.915 30.952 172.915 30.584ZM169.331 27.96C170.691 27.96 171.507 28.872 171.683 30.344H166.835C167.027 28.84 167.907 27.96 169.331 27.96ZM179.123 26.84C177.875 26.84 177.011 27.336 176.563 28.312L176.387 27H175.347V35H176.627V30.68C176.627 28.888 177.779 28.04 178.739 28.04C179.155 28.04 179.507 28.12 179.747 28.248L180.003 27C179.763 26.872 179.395 26.84 179.123 26.84ZM188.493 30.584C188.493 28.52 187.229 26.84 184.909 26.84C182.493 26.84 181.133 28.408 181.133 31C181.133 33.592 182.589 35.16 185.005 35.16C186.733 35.16 187.725 34.504 188.333 33.416L187.261 32.856C186.973 33.624 186.173 34.04 185.005 34.04C183.533 34.04 182.557 33.096 182.397 31.48H188.429C188.461 31.256 188.493 30.952 188.493 30.584ZM184.909 27.96C186.269 27.96 187.085 28.872 187.261 30.344H182.413C182.605 28.84 183.485 27.96 184.909 27.96Z" fill="#2B2B2B"/>
<rect x="214" width="211" height="60" rx="20" fill="#A259FF"/>
<path fill-rule="evenodd" clip-rule="evenodd" d="M265.875 24.375C265.875 24.0298 266.155 23.75 266.5 23.75H281.5C281.845 23.75 282.125 24.0298 282.125 24.375V35C282.125 35.3315 281.993 35.6495 281.759 35.8839C281.524 36.1183 281.207 36.25 280.875 36.25H267.125C266.793 36.25 266.476 36.1183 266.241 35.8839C266.007 35.6495 265.875 35.3315 265.875 35V24.375ZM267.125 25V35H280.875V25H267.125Z" fill="white"/>
<path fill-rule="evenodd" clip-rule="evenodd" d="M266.039 23.9527C266.273 23.6982 266.668 23.681 266.922 23.9143L274 30.4021L281.078 23.9143C281.332 23.681 281.727 23.6982 281.961 23.9527C282.194 24.2071 282.177 24.6025 281.922 24.8357L274.422 31.7107C274.183 31.9298 273.817 31.9298 273.578 31.7107L266.078 24.8357C265.823 24.6025 265.806 24.2071 266.039 23.9527Z" fill="white"/>
<path d="M301.521 24.28C298.785 24.28 297.201 25.736 297.201 27.608C297.201 29.368 298.321 30.264 301.265 30.856C303.009 31.208 303.569 31.544 303.569 32.12C303.569 32.92 302.833 33.352 301.473 33.352C300.049 33.352 299.041 33 298.209 31.624L296.897 33.192C297.793 34.472 299.153 35.16 301.553 35.16C304.081 35.16 305.889 33.976 305.889 31.992C305.889 30.232 304.817 29.352 301.969 28.824C300.113 28.488 299.537 28.104 299.537 27.4C299.537 26.648 300.209 26.088 301.537 26.088C302.961 26.088 303.841 26.664 304.385 27.8L305.905 26.312C304.833 24.904 303.489 24.28 301.521 24.28ZM313.083 27V31.288C313.083 32.776 312.251 33.432 311.211 33.432C310.347 33.432 309.819 33.032 309.819 31.736V27H307.627V32.296C307.627 34.344 308.827 35.16 310.443 35.16C311.723 35.16 312.715 34.68 313.243 33.624L313.323 35H315.275V27H313.083ZM322.286 26.84C321.102 26.84 320.238 27.432 319.774 28.328V23.496H317.582V35H319.518L319.598 33.448C320.046 34.472 321.006 35.16 322.286 35.16C324.414 35.16 325.71 33.624 325.71 31.016C325.71 28.392 324.398 26.84 322.286 26.84ZM321.63 33.48C320.494 33.48 319.774 32.632 319.774 31.08V30.92C319.774 29.4 320.478 28.52 321.63 28.52C322.798 28.52 323.502 29.368 323.502 31C323.502 32.632 322.798 33.48 321.63 33.48ZM330.748 35.16C333.132 35.16 334.396 34.12 334.396 32.68C334.396 31.352 333.532 30.648 331.196 30.184C329.852 29.912 329.452 29.64 329.452 29.208C329.452 28.792 329.996 28.44 330.892 28.44C331.964 28.44 332.604 28.856 333.068 29.688L334.428 28.536C333.692 27.384 332.7 26.84 330.86 26.84C328.492 26.84 327.26 28.12 327.26 29.416C327.26 30.744 328.092 31.512 330.588 32.008C331.756 32.248 332.188 32.472 332.188 32.84C332.188 33.272 331.66 33.56 330.716 33.56C329.628 33.56 328.764 33.272 328.316 32.312L327.036 33.624C327.772 34.712 329.1 35.16 330.748 35.16ZM339.777 26.84C337.217 26.84 335.697 28.376 335.697 31C335.697 33.624 337.201 35.16 339.857 35.16C341.889 35.16 343.137 34.168 343.473 32.744L341.489 32.104C341.329 33.016 340.785 33.528 339.825 33.528C338.641 33.528 337.889 32.728 337.889 31.016C337.889 29.336 338.593 28.472 339.841 28.472C340.689 28.472 341.201 28.968 341.393 29.928L343.441 29.192C343.057 27.88 342.033 26.84 339.777 26.84ZM349.75 26.84C348.502 26.84 347.686 27.464 347.27 28.568L347.126 27H345.222V35H347.414V30.856C347.414 29.4 348.374 28.696 349.334 28.696C349.75 28.696 350.118 28.792 350.342 28.936L350.614 27.016C350.422 26.904 350.102 26.84 349.75 26.84ZM353.076 25.848C353.988 25.848 354.436 25.464 354.436 24.68C354.436 23.896 353.988 23.496 353.076 23.496C352.164 23.496 351.716 23.896 351.716 24.68C351.716 25.464 352.164 25.848 353.076 25.848ZM354.164 27H351.972V35H354.164V27ZM361.192 26.84C360.008 26.84 359.144 27.432 358.68 28.328V23.496H356.488V35H358.424L358.504 33.448C358.952 34.472 359.912 35.16 361.192 35.16C363.32 35.16 364.616 33.624 364.616 31.016C364.616 28.392 363.304 26.84 361.192 26.84ZM360.536 33.48C359.4 33.48 358.68 32.632 358.68 31.08V30.92C358.68 29.4 359.384 28.52 360.536 28.52C361.704 28.52 362.408 29.368 362.408 31C362.408 32.632 361.704 33.48 360.536 33.48ZM374.022 30.968C374.022 28.344 372.662 26.84 370.166 26.84C367.59 26.84 366.134 28.376 366.134 31C366.134 33.624 367.638 35.16 370.294 35.16C372.102 35.16 373.334 34.472 373.846 33.192L372.054 32.536C371.83 33.176 371.222 33.528 370.294 33.528C369.222 33.528 368.518 32.984 368.294 31.832H373.958C373.99 31.624 374.022 31.192 374.022 30.968ZM370.15 28.456C371.158 28.456 371.83 29.096 372.006 30.296H368.278C368.454 29.08 369.094 28.456 370.15 28.456Z" fill="white"/>
</svg>
